<svg width="28" height="28" viewBox="0 0 28 28" fill="none" xmlns="http://www.w3.org/2000/svg">
<rect x="2" y="4" width="2" height="2" fill="black"/>
<rect x="26" y="24" width="2" height="2" transform="rotate(180 26 24)" fill="black"/>
<rect width="2" height="2" transform="matrix(-1 0 0 1 26 4)" fill="black"/>
<rect width="2" height="2" transform="matrix(1 -8.74228e-08 -8.74228e-08 -1 2 24)" fill="black"/>
<rect x="2" y="2" width="2" height="2" fill="black"/>
<rect x="26" y="26" width="2" height="2" transform="rotate(180 26 26)" fill="black"/>
<rect width="2" height="2" transform="matrix(-1 0 0 1 26 2)" fill="black"/>
<rect width="2" height="2" transform="matrix(1 -8.74228e-08 -8.74228e-08 -1 2 26)" fill="black"/>
<rect x="4" y="2" width="2" height="2" fill="black"/>
<rect x="24" y="26" width="2" height="2" transform="rotate(180 24 26)" fill="black"/>
<rect width="2" height="2" transform="matrix(-1 0 0 1 24 2)" fill="black"/>
<rect width="2" height="2" transform="matrix(1 -8.74228e-08 -8.74228e-08 -1 4 26)" fill="black"/>
<rect x="6" width="2" height="2" fill="black"/>
<rect x="22" y="28" width="2" height="2" transform="rotate(180 22 28)" fill="black"/>
<rect y="22" width="2" height="2" transform="rotate(-90 0 22)" fill="black"/>
<rect x="26" y="22" width="2" height="2" transform="rotate(-90 26 22)" fill="black"/>
<rect x="8" width="2" height="2" fill="black"/>
<rect x="20" y="28" width="2" height="2" transform="rotate(180 20 28)" fill="black"/>
<rect y="20" width="2" height="2" transform="rotate(-90 0 20)" fill="black"/>
<rect x="26" y="20" width="2" height="2" transform="rotate(-90 26 20)" fill="black"/>
<rect x="10" width="2" height="2" fill="black"/>
<rect x="18" y="28" width="2" height="2" transform="rotate(180 18 28)" fill="black"/>
<rect y="18" width="2" height="2" transform="rotate(-90 0 18)" fill="black"/>
<rect x="26" y="18" width="2" height="2" transform="rotate(-90 26 18)" fill="black"/>
<rect x="12" width="2" height="2" fill="black"/>
<rect x="16" y="28" width="2" height="2" transform="rotate(180 16 28)" fill="black"/>
<rect y="16" width="2" height="2" transform="rotate(-90 0 16)" fill="black"/>
<rect x="26" y="16" width="2" height="2" transform="rotate(-90 26 16)" fill="black"/>
<rect x="14" width="2" height="2" fill="black"/>
<rect x="14" y="28" width="2" height="2" transform="rotate(180 14 28)" fill="black"/>
<rect y="14" width="2" height="2" transform="rotate(-90 0 14)" fill="black"/>
<rect x="26" y="14" width="2" height="2" transform="rotate(-90 26 14)" fill="black"/>
<rect x="16" width="2" height="2" fill="black"/>
<rect x="12" y="28" width="2" height="2" transform="rotate(180 12 28)" fill="black"/>
<rect y="12" width="2" height="2" transform="rotate(-90 0 12)" fill="black"/>
<rect x="26" y="12" width="2" height="2" transform="rotate(-90 26 12)" fill="black"/>
<rect x="18" width="2" height="2" fill="black"/>
<rect x="10" y="28" width="2" height="2" transform="rotate(180 10 28)" fill="black"/>
<rect y="10" width="2" height="2" transform="rotate(-90 0 10)" fill="black"/>
<rect x="26" y="10" width="2" height="2" transform="rotate(-90 26 10)" fill="black"/>
<rect x="20" width="2" height="2" fill="black"/>
<rect x="8" y="28" width="2" height="2" transform="rotate(180 8 28)" fill="black"/>
<rect y="8" width="2" height="2" transform="rotate(-90 0 8)" fill="black"/>
<rect x="26" y="8" width="2" height="2" transform="rotate(-90 26 8)" fill="black"/>
<rect x="8" y="10" width="2" height="2" transform="rotate(-90 8 10)" fill="black"/>
<rect x="8" y="18" width="2" height="2" transform="rotate(-90 8 18)" fill="black"/>
<rect x="10" y="20" width="2" height="2" transform="rotate(-90 10 20)" fill="black"/>
<rect x="12" y="20" width="2" height="2" transform="rotate(-90 12 20)" fill="black"/>
<rect x="14" y="20" width="2" height="2" transform="rotate(-90 14 20)" fill="black"/>
<rect x="16" y="20" width="2" height="2" transform="rotate(-90 16 20)" fill="black"/>
<rect x="18" y="10" width="2" height="2" transform="rotate(-90 18 10)" fill="black"/>
<rect x="18" y="18" width="2" height="2" transform="rotate(-90 18 18)" fill="black"/>
</svg>
