<svg width="100" height="90" viewBox="0 0 100 90" fill="none" xmlns="http://www.w3.org/2000/svg">
<rect x="0.5" y="0.5" width="99" height="89" stroke="black"/>
<rect x="10.5" y="10.5" width="79" height="19" stroke="black"/>
<rect x="10.5" y="35.5" width="79" height="49" stroke="black"/>
<rect x="15.5" y="40.5" width="9" height="9" stroke="black"/>
<rect x="30.5" y="40.5" width="9" height="9" stroke="black"/>
<rect x="45.5" y="40.5" width="9" height="9" stroke="black"/>
<rect x="60.5" y="40.5" width="9" height="9" stroke="black"/>
<rect x="75.5" y="40.5" width="9" height="9" stroke="black"/>
<rect x="15.5" y="55.5" width="9" height="9" stroke="black"/>
<rect x="30.5" y="55.5" width="9" height="9" stroke="black"/>
<rect x="45.5" y="55.5" width="9" height="9" stroke="black"/>
<rect x="60.5" y="55.5" width="9" height="9" stroke="black"/>
<rect x="75.5" y="55.5" width="9" height="9" stroke="black"/>
<rect x="15.5" y="70.5" width="9" height="9" stroke="black"/>
<rect x="30.5" y="70.5" width="9" height="9" stroke="black"/>
<rect x="45.5" y="70.5" width="9" height="9" stroke="black"/>
<rect x="60.5" y="70.5" width="9" height="9" stroke="black"/>
<rect x="75.5" y="70.5" width="9" height="9" stroke="black"/>
</svg>
