<svg width="100" height="90" viewBox="0 0 100 90" fill="none" xmlns="http://www.w3.org/2000/svg">
<rect x="0.5" y="0.5" width="99" height="89" stroke="black"/>
<path d="M20 29.5833V10.4167" stroke="black"/>
<path d="M15 24.2129C16.6667 27.9787 25 27.6933 25 23.7113C25 19.0727 15.4167 21.4607 15.4167 16.3229C15.4167 12.7102 21.8573 12.1035 24.4 14.7835" stroke="black"/>
<line x1="40" y1="19.5" x2="90" y2="19.5" stroke="black"/>
<path d="M20 54.5833V35.4167" stroke="black"/>
<path d="M15 49.2129C16.6667 52.9787 25 52.6933 25 48.7113C25 44.0727 15.4167 46.4607 15.4167 41.3229C15.4167 37.7102 21.8573 37.1035 24.4 39.7835" stroke="black"/>
<line x1="40" y1="44.5" x2="90" y2="44.5" stroke="black"/>
<path d="M20 79.5833V60.4167" stroke="black"/>
<path d="M15 74.2129C16.6667 77.9787 25 77.6933 25 73.7113C25 69.0727 15.4167 71.4607 15.4167 66.3229C15.4167 62.7102 21.8573 62.1035 24.4 64.7835" stroke="black"/>
<line x1="40" y1="69.5" x2="90" y2="69.5" stroke="black"/>
</svg>
